<svg width="760" height="960" viewBox="0 0 760 960" fill="none" xmlns="http://www.w3.org/2000/svg">
  <rect width="760" height="960" fill="none"/>
  <g transform="translate(20 315)">
    <path d="M39 99C39 84.6406 50.6406 73 65 73H72C86.3594 73 98 84.6406 98 99V110H116C130.359 110 142 121.641 142 136V143C142 157.359 130.359 169 116 169H98V180C98 194.359 86.3594 206 72 206H65C50.6406 206 39 194.359 39 180V169H27C12.6406 169 1 157.359 1 143V136C1 121.641 12.6406 110 27 110H39V99Z" fill="#E6F06A"/>
    <path d="M26 214C26 203.507 34.5066 195 45 195H690C700.493 195 709 203.507 709 214V218C709 228.493 700.493 237 690 237H45C34.5066 237 26 228.493 26 218V214Z" fill="#E6F06A"/>
    <path d="M26 145C26 134.507 34.5066 126 45 126H54V214H26V145Z" fill="#E6F06A"/>
    <path d="M682 145C682 134.507 690.507 126 701 126H709V214H682V145Z" fill="#E6F06A"/>
    <path d="M125 55H267C278.046 55 287 63.9543 287 75V119C287 130.046 278.046 139 267 139H191V165H254C265.046 165 274 173.954 274 185V219C274 230.046 265.046 239 254 239H125C113.954 239 105 230.046 105 219V75C105 63.9543 113.954 55 125 55Z" fill="#2559A8"/>
    <path d="M171 101V192H231V178H188V151H225V138H188V114H231V101H171Z" fill="#0A2B62" fill-opacity="0.18"/>
    <path d="M325 55H401C412.046 55 421 63.9543 421 75V219C421 230.046 412.046 239 401 239H325C313.954 239 305 230.046 305 219V75C305 63.9543 313.954 55 325 55Z" fill="#2559A8"/>
    <path d="M355 55H375V239H355V55Z" fill="#0A2B62" fill-opacity="0.15"/>
    <path d="M452 55H528C536.249 55 543.566 60.0482 546.573 67.7296L553 84.1482L501 161L557.569 213.298C570.803 225.53 562.146 247 544.127 247H518.989C514.113 247 509.416 245.149 505.849 241.823L454 193.461V219C454 230.046 445.046 239 434 239H431C419.954 239 411 230.046 411 219V75C411 63.9543 419.954 55 431 55H434C445.046 55 454 63.9543 454 75V129.727L496.765 61.1828C500.42 57.2145 506.022 55 512 55H452Z" fill="#2559A8"/>
    <path d="M599 55H704C715.046 55 724 63.9543 724 75V120C724 131.046 715.046 140 704 140H670V219C670 230.046 661.046 239 650 239H623C611.954 239 603 230.046 603 219V140H599C587.954 140 579 131.046 579 120V75C579 63.9543 587.954 55 599 55Z" fill="#2559A8"/>
    <text x="1" y="311" fill="#0A2B62" font-family="Arial, Helvetica, sans-serif" font-size="64" font-weight="900" letter-spacing="2">POWER YOUR BUSINESS</text>
  </g>
</svg>